<svg xmlns="http://www.w3.org/2000/svg" width="600" height="360" viewBox="0 0 600 360" role="img" aria-labelledby="planTitle">
  <title id="planTitle">Planning nodes and flow lines</title>
  <defs>
    <linearGradient id="bg" x1="0%" y1="0%" x2="100%" y2="100%">
      <stop offset="0%" stop-color="#1a2442" />
      <stop offset="100%" stop-color="#0c1326" />
    </linearGradient>
    <radialGradient id="node" cx="50%" cy="50%" r="50%">
      <stop offset="0%" stop-color="#8a7bff" stop-opacity="0.9" />
      <stop offset="100%" stop-color="#4c3fb0" stop-opacity="0.25" />
    </radialGradient>
    <radialGradient id="node-alt" cx="50%" cy="50%" r="50%">
      <stop offset="0%" stop-color="#59d2ff" stop-opacity="0.85" />
      <stop offset="100%" stop-color="#346a8f" stop-opacity="0.2" />
    </radialGradient>
    <linearGradient id="line" x1="0%" y1="0%" x2="100%" y2="100%">
      <stop offset="0%" stop-color="#a499ff" stop-opacity="0.8" />
      <stop offset="100%" stop-color="#59d2ff" stop-opacity="0.2" />
    </linearGradient>
  </defs>
  <rect width="600" height="360" rx="28" fill="url(#bg)" />
  <path d="M120 88c42 8 76 42 94 78s48 70 94 78 90-24 126-48" fill="none" stroke="url(#line)" stroke-width="3" stroke-linecap="round" stroke-linejoin="round" opacity="0.7" />
  <path d="M160 220c36 6 62 32 78 54s42 46 80 54 74-16 102-36" fill="none" stroke="url(#line)" stroke-width="2.5" stroke-linecap="round" stroke-linejoin="round" opacity="0.6" />
  <g opacity="0.95">
    <circle cx="120" cy="88" r="26" fill="url(#node)" />
    <circle cx="228" cy="168" r="20" fill="url(#node-alt)" />
    <circle cx="310" cy="244" r="24" fill="url(#node)" />
    <circle cx="410" cy="194" r="18" fill="url(#node-alt)" />
    <circle cx="486" cy="142" r="30" fill="url(#node)" />
    <circle cx="520" cy="248" r="22" fill="url(#node-alt)" />
  </g>
  <g fill="none" stroke="#2e3d66" stroke-width="1.5" opacity="0.4">
    <rect x="96" y="64" width="64" height="48" rx="12" />
    <rect x="206" y="142" width="52" height="42" rx="10" />
    <rect x="292" y="218" width="56" height="46" rx="12" />
    <rect x="392" y="170" width="48" height="40" rx="10" />
    <rect x="458" y="122" width="68" height="52" rx="14" />
  </g>
</svg>
